<?xml version="1.0" encoding="UTF-8"?>
<!DOCTYPE svg PUBLIC "-//W3C//DTD SVG 1.1//EN" "http://www.w3.org/Graphics/SVG/1.1/DTD/svg11.dtd">
<!-- Creator: CorelDRAW X5 -->
<svg xmlns="http://www.w3.org/2000/svg" xml:space="preserve" width="121.136mm" height="55.9551mm" style="shape-rendering:geometricPrecision; text-rendering:geometricPrecision; image-rendering:optimizeQuality; fill-rule:evenodd; clip-rule:evenodd"
viewBox="0 0 8168 3773"
 xmlns:xlink="http://www.w3.org/1999/xlink">
 <defs>
  <style type="text/css">
   <![CDATA[
    .str0 {stroke:#EEEEF4;stroke-width:202.291}
    .fil0 {fill:none}
    .fil1 {fill:black}
    .fil3 {fill:#37393A}
    .fil6 {fill:#EEEEF4}
    .fil2 {fill:black}
    .fil13 {fill:black;fill-rule:nonzero}
    .fil12 {fill:#333C44;fill-rule:nonzero}
    .fil7 {fill:#37414A;fill-rule:nonzero}
    .fil17 {fill:#404C57;fill-rule:nonzero}
    .fil11 {fill:#4C5B69;fill-rule:nonzero}
    .fil10 {fill:#596B7C;fill-rule:nonzero}
    .fil9 {fill:#65798D;fill-rule:nonzero}
    .fil8 {fill:#71889E;fill-rule:nonzero}
    .fil16 {fill:#7D96AF;fill-rule:nonzero}
    .fil15 {fill:#89A4BF;fill-rule:nonzero}
    .fil14 {fill:#93B1CF;fill-rule:nonzero}
    .fil4 {fill:#EEEEF4;fill-rule:nonzero}
    .fil5 {fill:#F5D900;fill-rule:nonzero}
   ]]>
  </style>
 </defs>
 <g id="Warstwa_x0020_1">
  <metadata id="CorelCorpID_0Corel-Layer"/>
  <g id="_374215816">
   <g>
    <g>
     <path class="fil0 str0" d="M3198 101c178,0 345,51 485,139l3029 -1 2 3167 -5255 2 -1 -3168 1255 0c141,-88 307,-140 486,-140z"/>
     <path id="1" class="fil1" d="M3198 101c178,0 345,51 485,139l3029 -1 2 3167 -5255 2 -1 -3168 1255 0c141,-88 307,-140 486,-140z"/>
    </g>
    <g>
     <path class="fil0 str0" d="M1356 243c-71,-13 -247,20 -315,38 -93,24 -176,58 -254,97 -310,155 -548,451 -639,782 -59,215 -45,431 -45,668 0,238 -14,451 46,666 92,334 330,624 641,780 139,70 374,146 567,136l-1 -3166z"/>
     <path id="1" class="fil2" d="M1356 243c-71,-13 -247,20 -315,38 -93,24 -176,58 -254,97 -310,155 -548,451 -639,782 -59,215 -45,431 -45,668 0,238 -14,451 46,666 92,334 330,624 641,780 139,70 374,146 567,136l-1 -3166z"/>
    </g>
    <g>
     <path class="fil0 str0" d="M6814 3405c137,28 435,-66 570,-135 310,-159 544,-444 637,-783 58,-213 45,-432 45,-666 0,-230 14,-457 -46,-665 -126,-432 -455,-760 -894,-877 -63,-17 -244,-50 -312,-37l0 3163z"/>
     <path id="1" class="fil2" d="M6814 3405c137,28 435,-66 570,-135 310,-159 544,-444 637,-783 58,-213 45,-432 45,-666 0,-230 14,-457 -46,-665 -126,-432 -455,-760 -894,-877 -63,-17 -244,-50 -312,-37l0 3163z"/>
    </g>
    <g>
     <path class="fil0 str0" d="M1308 3515c-4,185 96,155 255,155 155,0 258,28 249,-155l-504 1z"/>
     <path id="1" class="fil3" d="M1308 3515c-4,185 96,155 255,155 155,0 258,28 249,-155l-504 1z"/>
    </g>
    <g>
     <path class="fil0 str0" d="M6355 3510c-7,181 95,154 253,154 161,0 256,28 253,-155l-505 2z"/>
     <path id="1" class="fil3" d="M6355 3510c-7,181 95,154 253,154 161,0 256,28 253,-155l-505 2z"/>
    </g>
   </g>
   <path class="fil4" d="M4833 677l0 516c0,58 -2,100 -6,123 -4,24 -15,48 -34,73 -19,25 -43,44 -74,57 -31,13 -67,19 -109,19 -46,0 -87,-8 -122,-23 -35,-15 -62,-35 -79,-60 -17,-25 -28,-50 -31,-78 -3,-27 -5,-84 -5,-172l0 -457 201 0 0 579c0,34 2,55 6,65 4,9 11,14 22,14 13,0 21,-5 25,-15 4,-10 5,-35 5,-73l0 -569 201 0z"/>
   <path id="1" class="fil4" d="M5187 677l0 516c0,77 -1,127 -2,149 -2,22 -9,42 -22,60 -13,18 -30,30 -52,37 -22,7 -56,10 -100,10l-101 0 0 -135c12,1 21,1 26,1 14,0 26,-4 34,-11 8,-7 13,-15 14,-26 1,-10 2,-30 2,-59l0 -544 201 0z"/>
   <path id="12" class="fil4" d="M5915 677l0 773 -176 0 0 -522 -70 522 -125 0 -74 -510 0 510 -176 0 0 -773 260 0c8,46 16,101 24,164l28 197 46 -361 262 0z"/>
   <path id="123" class="fil4" d="M6372 677l115 773 -206 0 -10 -139 -72 0 -12 139 -208 0 102 -773 291 0zm-106 497c-10,-87 -20,-196 -31,-324 -20,148 -33,256 -38,324l69 0z"/>
   <path class="fil5" d="M2227 1951l143 964 -257 0 -12 -173 -90 0 -15 173 -259 0 127 -964 363 0zm-133 620c-13,-109 -25,-244 -38,-404 -25,184 -41,319 -48,404l86 0z"/>
   <path id="1" class="fil5" d="M2956 2125l0 790 -245 0 4 -65c-17,27 -37,47 -62,60 -24,13 -52,20 -84,20 -36,0 -66,-6 -90,-19 -24,-13 -41,-30 -53,-51 -11,-21 -18,-43 -21,-66 -3,-23 -4,-68 -4,-136l0 -533 241 0 0 538c0,62 2,98 6,110 4,12 14,17 31,17 18,0 28,-6 32,-18 3,-12 5,-50 5,-115l0 -532 241 0z"/>
   <path id="12" class="fil5" d="M3296 2020l0 124 65 0 0 125 -65 0 0 423c0,52 3,81 8,87 5,6 28,9 67,9l0 127 -97 0c-55,0 -94,-2 -117,-7 -23,-4 -44,-15 -62,-31 -18,-16 -29,-35 -33,-56 -4,-21 -7,-71 -7,-150l0 -401 -52 0 0 -125 52 0 0 -124 241 0z"/>
   <path id="123" class="fil5" d="M3958 2402l0 193c0,71 -4,123 -11,156 -7,33 -22,64 -46,93 -23,29 -53,50 -90,64 -37,14 -79,21 -127,21 -53,0 -98,-6 -135,-17 -37,-12 -66,-29 -86,-53 -21,-24 -35,-52 -44,-86 -9,-34 -13,-84 -13,-151l0 -203c0,-73 8,-131 24,-172 16,-41 44,-74 86,-99 41,-25 94,-38 158,-38 54,0 100,8 139,24 39,16 69,37 90,63 21,26 35,52 43,80 8,27 12,69 12,125zm-241 -60c0,-41 -2,-66 -7,-77 -4,-11 -14,-16 -28,-16 -14,0 -24,5 -28,16 -5,11 -7,36 -7,77l0 356c0,37 2,62 7,73 5,11 14,17 28,17 14,0 24,-5 28,-15 5,-10 7,-33 7,-67l0 -364z"/>
   <polygon id="1234" class="fil5" points="4547,2437 4547,2603 4231,2603 4231,2437 "/>
   <path id="12345" class="fil5" d="M5409 2306l-251 0 0 -88c0,-55 -2,-90 -7,-104 -5,-14 -16,-21 -34,-21 -16,0 -26,6 -32,18 -5,12 -8,42 -8,92l0 462c0,43 3,72 8,86 6,14 17,21 33,21 18,0 31,-8 37,-23 7,-16 10,-46 10,-91l0 -114 -51 0 0 -147 293 0 0 517 -158 0 -23 -69c-17,30 -39,52 -65,67 -26,15 -57,22 -92,22 -42,0 -81,-10 -118,-31 -37,-21 -65,-46 -84,-76 -19,-30 -31,-62 -36,-95 -5,-33 -7,-83 -7,-149l0 -286c0,-92 5,-159 15,-201 10,-42 38,-80 86,-115 47,-35 108,-52 182,-52 73,0 134,15 183,45 48,30 80,66 95,107 15,41 22,102 22,181l0 42z"/>
   <path id="123456" class="fil5" d="M5714 2431l-226 0 0 -53c0,-61 7,-108 21,-141 14,-33 42,-63 85,-88 42,-25 98,-38 165,-38 81,0 143,14 184,43 41,29 66,64 75,106 8,42 12,128 12,259l0 396 -234 0 0 -70c-15,28 -34,49 -57,63 -23,14 -51,21 -83,21 -42,0 -81,-12 -116,-35 -35,-24 -53,-75 -53,-155l0 -65c0,-59 9,-99 28,-121 19,-22 65,-47 139,-75 79,-31 121,-52 127,-63 5,-11 8,-33 8,-65 0,-41 -3,-68 -9,-81 -6,-13 -16,-19 -31,-19 -16,0 -26,5 -30,16 -4,11 -6,38 -6,82l0 83zm76 108c-39,28 -61,52 -67,71 -6,19 -9,47 -9,82 0,41 3,67 8,79 5,12 16,18 32,18 15,0 25,-5 29,-14 4,-9 7,-34 7,-74l0 -163z"/>
   <polygon id="1234567" class="fil5" points="6487,2125 6487,2300 6310,2757 6487,2757 6487,2915 6077,2915 6077,2749 6259,2283 6096,2283 6096,2125 "/>
   <path class="fil6" d="M1910 1856l0 -599c0,-173 141,-314 314,-314l2054 0 0 270 -2054 0c-24,0 -45,20 -45,45l0 599 -270 0z"/>
   <g>
    <circle class="fil6" cx="3198" cy="1075" r="832"/>
    <g>
     <polygon class="fil7" points="2843,1236 2780,1236 2780,997 2740,1020 2710,970 2796,915 2843,915 "/>
     <path class="fil7" d="M3049 1075c0,-25 -3,-46 -9,-63 -9,-25 -23,-38 -43,-38 -21,0 -35,13 -44,38 -6,17 -9,38 -9,64 0,25 3,46 9,63 9,25 24,38 44,38 35,0 52,-34 52,-101zm66 -1c0,44 -9,80 -26,110 -21,36 -52,55 -92,55 -41,0 -72,-18 -93,-54 -17,-30 -26,-66 -26,-110 0,-44 9,-80 26,-110 21,-36 52,-55 93,-55 40,0 71,18 92,54 17,30 26,66 26,110z"/>
     <path class="fil7" d="M3297 1075c0,-25 -3,-46 -9,-63 -9,-25 -23,-38 -43,-38 -21,0 -35,13 -44,38 -6,17 -9,38 -9,64 0,25 3,46 9,63 9,25 24,38 44,38 35,0 52,-34 52,-101zm66 -1c0,44 -9,80 -26,110 -21,36 -52,55 -92,55 -41,0 -72,-18 -93,-54 -17,-30 -26,-66 -26,-110 0,-44 9,-80 26,-110 21,-36 52,-55 93,-55 40,0 71,18 92,54 17,30 26,66 26,110z"/>
     <path class="fil7" d="M3646 1167c0,-23 -6,-34 -18,-34 -12,0 -18,11 -18,34 0,22 6,34 18,34 12,0 18,-11 18,-34zm39 0c0,20 -4,36 -13,49 -10,15 -25,23 -44,23 -19,0 -34,-8 -44,-23 -8,-13 -13,-29 -13,-49 0,-20 4,-37 13,-50 10,-15 25,-23 44,-23 19,0 34,8 44,23 9,13 13,30 13,50zm-52 -183l-115 252 -48 0 115 -252 48 0zm-139 69c0,-23 -6,-34 -18,-34 -12,0 -18,11 -18,34 0,23 6,34 18,34 12,0 18,-11 18,-34zm39 0c0,20 -4,37 -13,49 -10,15 -25,23 -44,23 -19,0 -34,-8 -44,-23 -9,-13 -13,-29 -13,-49 0,-20 4,-37 13,-49 10,-15 25,-23 44,-23 19,0 34,8 44,23 8,13 13,29 13,49z"/>
     <path class="fil8" d="M3873 1465c-24,41 -51,79 -81,115 -1,1 -2,3 -3,4 -1,1 -1,2 -2,3 -12,14 -24,27 -37,40 -26,26 -53,49 -82,71l-121 -166c3,-2 6,-4 8,-7 1,-1 2,-2 3,-2 2,-2 4,-3 6,-5 34,-28 66,-61 93,-97 6,-8 12,-17 18,-26 0,0 0,-1 1,-1 2,-3 4,-7 7,-10 1,-1 1,-2 2,-3 2,-3 3,-5 5,-8 1,-2 2,-3 3,-5 1,-2 3,-4 4,-7 1,-2 3,-4 4,-7 1,-2 2,-3 3,-5 2,-3 3,-6 5,-8 1,-1 1,-2 2,-3 2,-4 4,-7 5,-11 0,0 0,-1 1,-1 5,-9 9,-19 13,-29 5,-11 9,-22 13,-33l195 63c-6,18 -13,35 -20,52 -12,29 -26,57 -42,84z"/>
     <path class="fil9" d="M3496 1796c-3,1 -6,3 -10,4 -1,1 -3,1 -4,2 -2,1 -4,2 -6,2 -3,1 -5,2 -8,3 -1,0 -1,1 -2,1 -65,24 -134,39 -204,45 -17,1 -34,2 -51,3l0 -205c21,-1 43,-2 64,-5 50,-7 99,-20 146,-40 23,-10 45,-21 67,-33 1,-1 2,-1 3,-2 2,-1 4,-2 6,-4 3,-2 6,-4 9,-6 1,-1 2,-1 3,-2 3,-2 6,-4 8,-5 1,0 1,-1 2,-1 2,-1 3,-2 5,-3l121 166c-18,13 -37,25 -57,36 -30,17 -60,32 -92,45 0,0 0,0 0,0z"/>
     <path class="fil10" d="M3138 1853c-2,0 -3,0 -5,0 -74,-6 -147,-23 -217,-50 -1,0 -1,0 -2,-1 -3,-1 -5,-2 -8,-3 -2,-1 -4,-1 -5,-2 -2,-1 -3,-1 -5,-2 -3,-1 -6,-2 -9,-4 0,0 -1,0 -1,0 -27,-12 -54,-25 -79,-40 -20,-11 -39,-23 -57,-36l121 -166c1,1 3,2 4,3 1,1 2,2 4,2 2,1 4,3 6,4 7,5 14,9 21,13 0,0 0,0 0,0 22,13 44,24 68,34 47,20 96,33 146,40 2,0 3,0 5,1 0,0 0,0 1,0 19,2 38,4 58,4l0 205c-15,0 -29,-1 -44,-2 -1,0 -1,0 -2,0z"/>
     <path class="fil11" d="M2646 1627c-13,-13 -25,-26 -37,-39 -1,-1 -2,-3 -3,-4 -1,-1 -2,-2 -3,-3 -30,-36 -58,-74 -81,-115 -16,-27 -30,-55 -42,-84 -7,-17 -14,-34 -20,-52l195 -63c4,11 8,22 13,33 4,10 8,19 13,29 0,0 0,1 1,1 2,4 4,7 5,11 1,1 1,2 2,3 1,3 3,6 5,8 1,2 2,3 3,5 1,2 2,4 4,7 1,2 3,4 4,7 1,2 2,3 3,5 2,3 3,5 5,8 1,1 1,2 2,3 2,3 4,7 7,10 0,0 0,1 1,1 6,9 12,17 18,26 27,36 59,69 94,98 1,1 2,2 4,3 1,1 3,2 4,3 3,2 5,4 8,6l-121 166c-29,-22 -56,-45 -82,-71z"/>
     <path class="fil12" d="M2522 685c24,-41 51,-80 81,-115 1,-1 2,-2 3,-3 1,-1 2,-2 3,-3 12,-14 24,-27 37,-40 26,-26 53,-50 82,-71l121 166c-3,2 -6,4 -8,6 -1,1 -2,2 -3,2 -2,1 -4,3 -5,4 -35,28 -66,61 -93,97 -6,8 -12,17 -18,26 0,0 0,1 -1,1 -2,3 -4,7 -7,10 -1,1 -1,2 -2,3 -2,3 -3,5 -5,8 -1,2 -2,3 -3,5 -1,2 -3,4 -4,7 -1,2 -3,4 -4,7 -1,2 -2,3 -3,5 -2,3 -3,6 -5,8 -1,1 -1,2 -2,3 -2,4 -4,7 -5,11 0,0 0,1 -1,1 -5,9 -9,19 -13,29 -5,11 -9,22 -13,33l-195 -63c6,-18 13,-35 20,-52 12,-29 26,-57 42,-84z"/>
     <path class="fil13" d="M2900 354c3,-1 5,-2 8,-3 2,-1 4,-2 6,-2 1,-1 3,-1 4,-2 3,-1 6,-2 9,-4 0,0 0,0 0,0 66,-24 135,-40 205,-46 2,0 3,0 5,0 0,0 1,0 1,0 15,-1 29,-2 44,-2l0 205c-19,0 -39,2 -58,4 0,0 0,0 0,0 -2,0 -4,0 -6,1 -50,7 -99,20 -146,40 -23,10 -45,21 -67,34 -1,0 -1,1 -2,1 -2,1 -5,3 -7,4 -3,2 -6,4 -9,5 -1,1 -2,2 -4,2 -3,2 -5,3 -8,5 -1,0 -1,1 -2,1 -2,1 -3,2 -5,3l-121 -166c18,-13 37,-25 57,-36 29,-17 60,-32 91,-45 1,0 1,-1 2,-1z"/>
     <path class="fil14" d="M3257 297c2,0 3,0 5,0 74,6 147,23 216,50 1,0 1,1 2,1 3,1 5,2 8,3 2,1 4,2 6,2 1,1 3,1 4,2 3,1 6,3 10,4 0,0 0,0 0,0 27,12 54,25 80,40 20,11 39,23 57,36l-121 166c-1,-1 -3,-2 -4,-3 -1,-1 -2,-1 -3,-2 -2,-1 -4,-3 -6,-4 -2,-1 -3,-2 -5,-3 -1,0 -1,-1 -2,-1 -5,-3 -9,-6 -14,-9 0,0 0,0 -1,0 -22,-13 -44,-24 -67,-34 -47,-20 -96,-33 -146,-40 -2,0 -4,0 -6,-1 0,0 0,0 0,0 -19,-2 -39,-4 -58,-4l0 -205c15,0 29,1 44,2 0,0 1,0 1,0z"/>
     <path class="fil15" d="M3749 523c13,13 25,26 37,39 1,1 2,2 3,4 1,1 2,2 3,3 30,36 58,74 81,115 16,27 30,55 42,84 7,17 14,34 20,52l-195 63c-4,-11 -8,-22 -13,-33 -4,-10 -8,-19 -13,-29 0,0 0,-1 -1,-1 -2,-4 -4,-7 -5,-11 -1,-1 -1,-2 -2,-3 -2,-3 -3,-6 -5,-8 -1,-2 -2,-3 -3,-5 -1,-2 -2,-4 -4,-7 -1,-2 -3,-4 -4,-7 -1,-2 -2,-3 -3,-5 -2,-3 -3,-5 -5,-8 -1,-1 -1,-2 -2,-3 -2,-3 -4,-7 -7,-10 0,0 0,-1 -1,-1 -6,-9 -12,-17 -18,-26 -27,-36 -59,-69 -94,-97 -1,-1 -3,-2 -4,-3 -1,-1 -2,-2 -4,-3 -3,-2 -5,-4 -8,-6l121 -166c29,22 56,45 82,71z"/>
     <path class="fil16" d="M3978 1075c0,32 -2,63 -6,94 -4,36 -11,73 -21,108 -2,9 -5,17 -7,26l-195 -63c1,-3 2,-6 3,-9 0,0 0,-1 0,-1 1,-2 1,-4 2,-6 0,-2 1,-4 1,-6 0,0 0,-1 0,-1 6,-23 10,-47 13,-71 2,-20 4,-39 4,-59 0,0 0,-1 0,-1 0,-2 0,-3 0,-5 0,-1 0,-2 0,-2 0,-1 0,-3 0,-4 0,-1 0,-3 0,-4 0,-1 0,-2 0,-2 0,-2 0,-3 0,-5 0,0 0,-1 0,-1 0,-20 -2,-39 -4,-59 -3,-24 -7,-48 -13,-71 0,0 0,-1 0,-1 -1,-2 -1,-4 -2,-6 -1,-2 -1,-4 -2,-6 0,0 0,-1 0,-1 -1,-3 -2,-6 -3,-9l195 -63c3,9 5,17 7,26 10,36 17,72 21,108 4,31 6,62 6,94z"/>
     <path class="fil17" d="M2644 920c0,0 0,1 0,1 -1,2 -1,4 -2,6 -1,2 -1,4 -2,6 0,0 0,1 0,1 -6,23 -10,47 -13,71 -2,20 -4,39 -4,59 0,0 0,1 0,1 0,2 0,3 0,5 0,1 0,2 0,2 0,1 0,3 0,4 0,1 0,3 0,4 0,1 0,2 0,2 0,2 0,3 0,5 0,0 0,1 0,1 0,20 2,39 4,59 3,24 7,48 13,71 0,0 0,1 0,1 0,2 1,4 1,6 0,2 1,4 2,6 0,0 0,1 0,1 1,3 2,6 3,9l-195 63c-3,-9 -5,-17 -7,-26 -10,-36 -17,-72 -21,-108 -4,-31 -6,-62 -6,-94 0,-31 2,-63 6,-94 4,-36 11,-73 21,-108 2,-9 5,-17 7,-26l195 63c-1,3 -2,6 -3,9z"/>
    </g>
   </g>
  </g>
 </g>
</svg>
