<?xml version="1.0" encoding="UTF-8"?>
<!DOCTYPE svg PUBLIC "-//W3C//DTD SVG 1.1//EN" "http://www.w3.org/Graphics/SVG/1.1/DTD/svg11.dtd">
<!-- Creator: CorelDRAW X5 -->
<svg xmlns="http://www.w3.org/2000/svg" xml:space="preserve" width="118.136mm" height="52.2173mm" style="shape-rendering:geometricPrecision; text-rendering:geometricPrecision; image-rendering:optimizeQuality; fill-rule:evenodd; clip-rule:evenodd"
viewBox="0 0 7901 3492"
 xmlns:xlink="http://www.w3.org/1999/xlink">
 <defs>
  <style type="text/css">
   <![CDATA[
    .str0 {stroke:#37393A;stroke-width:157.155;stroke-linecap:round;stroke-linejoin:round}
    .fil4 {fill:none}
    .fil0 {fill:#37393A}
    .fil3 {fill:#EEEEF4}
    .fil11 {fill:black;fill-rule:nonzero}
    .fil10 {fill:#333C44;fill-rule:nonzero}
    .fil5 {fill:#37414A;fill-rule:nonzero}
    .fil15 {fill:#404C57;fill-rule:nonzero}
    .fil9 {fill:#4C5B69;fill-rule:nonzero}
    .fil8 {fill:#596B7C;fill-rule:nonzero}
    .fil7 {fill:#65798D;fill-rule:nonzero}
    .fil6 {fill:#71889E;fill-rule:nonzero}
    .fil14 {fill:#7D96AF;fill-rule:nonzero}
    .fil13 {fill:#89A4BF;fill-rule:nonzero}
    .fil12 {fill:#93B1CF;fill-rule:nonzero}
    .fil1 {fill:#EEEEF4;fill-rule:nonzero}
    .fil2 {fill:#F5D900;fill-rule:nonzero}
   ]]>
  </style>
 </defs>
 <g id="Warstwa_x0020_1">
  <metadata id="CorelCorpID_0Corel-Layer"/>
  <g id="_253807104">
   <polygon class="fil0" points="1346,3278 6558,3276 6556,135 1345,136 "/>
   <path class="fil0" d="M1244 138c-70,-13 -245,20 -313,37 -92,24 -175,57 -252,96 -307,154 -543,447 -633,776 -58,214 -45,427 -45,662 0,236 -13,447 46,661 92,331 327,619 636,774 138,69 371,145 562,135l-1 -3140z"/>
   <path class="fil0" d="M6658 3275c136,28 431,-65 565,-134 308,-158 540,-440 632,-777 58,-212 44,-428 44,-661 0,-228 14,-453 -46,-659 -125,-429 -451,-754 -887,-869 -62,-17 -242,-49 -309,-36l0 3137z"/>
   <path class="fil0" d="M1197 3337c-4,184 95,153 253,153 154,0 256,28 247,-154l-500 1z"/>
   <path class="fil0" d="M6202 3338c-7,179 94,152 251,152 160,0 254,28 251,-154l-501 2z"/>
  </g>
  <path class="fil1" d="M4693 569l0 512c0,58 -2,99 -6,122 -4,24 -15,48 -34,72 -19,25 -43,44 -74,56 -30,13 -66,19 -108,19 -46,0 -86,-8 -121,-23 -35,-15 -61,-35 -79,-59 -17,-24 -28,-50 -31,-77 -3,-27 -5,-84 -5,-170l0 -453 199 0 0 575c0,33 2,55 5,64 4,9 11,14 22,14 13,0 21,-5 24,-15 4,-10 5,-35 5,-73l0 -565 199 0z"/>
  <path id="1" class="fil1" d="M5044 569l0 512c0,77 -1,126 -2,148 -2,22 -9,42 -21,59 -13,18 -30,30 -52,37 -22,7 -55,10 -99,10l-100 0 0 -134c12,1 21,1 26,1 14,0 25,-4 34,-10 8,-7 13,-15 14,-26 1,-10 2,-30 2,-59l0 -539 199 0z"/>
  <path id="12" class="fil1" d="M5766 569l0 766 -174 0 0 -517 -70 517 -124 0 -73 -506 0 506 -174 0 0 -766 258 0c8,46 16,100 24,163l27 195 45 -358 260 0z"/>
  <path id="123" class="fil1" d="M6220 569l114 766 -204 0 -10 -138 -72 0 -12 138 -206 0 101 -766 288 0zm-106 493c-10,-87 -20,-194 -30,-322 -20,147 -33,254 -38,322l68 0z"/>
  <path class="fil2" d="M2108 1832l142 956 -255 0 -12 -172 -89 0 -15 172 -257 0 126 -956 360 0zm-132 615c-13,-108 -25,-242 -38,-401 -25,183 -41,316 -47,401l85 0z"/>
  <path id="1" class="fil2" d="M2832 2004l0 784 -243 0 4 -65c-17,26 -37,46 -61,59 -24,13 -52,20 -83,20 -36,0 -66,-6 -89,-19 -24,-13 -41,-29 -52,-50 -11,-21 -18,-43 -21,-65 -3,-23 -4,-68 -4,-135l0 -528 239 0 0 533c0,61 2,97 6,109 4,11 14,17 30,17 18,0 28,-6 31,-18 3,-12 5,-50 5,-114l0 -527 239 0z"/>
  <path id="12" class="fil2" d="M3169 1900l0 123 64 0 0 124 -64 0 0 419c0,52 3,80 8,86 5,6 27,9 66,9l0 126 -96 0c-54,0 -93,-2 -116,-7 -23,-4 -44,-15 -61,-31 -18,-16 -29,-35 -33,-56 -4,-21 -7,-71 -7,-149l0 -398 -51 0 0 -124 51 0 0 -123 239 0z"/>
  <path id="123" class="fil2" d="M3826 2280l0 192c0,70 -4,122 -11,155 -7,33 -22,63 -46,92 -23,28 -53,50 -89,63 -36,14 -78,20 -126,20 -53,0 -97,-6 -134,-17 -37,-12 -65,-29 -85,-53 -20,-23 -35,-52 -44,-85 -9,-33 -13,-83 -13,-150l0 -201c0,-73 8,-130 24,-170 16,-41 44,-74 85,-99 41,-25 93,-37 157,-37 54,0 100,8 138,24 38,16 68,37 89,62 21,26 35,52 43,79 8,27 11,69 11,124zm-239 -59c0,-40 -2,-65 -6,-76 -4,-10 -14,-16 -28,-16 -14,0 -24,5 -28,16 -5,10 -7,36 -7,76l0 353c0,37 2,61 7,72 5,11 14,17 28,17 14,0 24,-5 28,-15 5,-10 7,-32 7,-66l0 -361z"/>
  <polygon id="1234" class="fil2" points="4409,2314 4409,2479 4096,2479 4096,2314 "/>
  <path id="12345" class="fil2" d="M5264 2184l-248 0 0 -87c0,-55 -2,-89 -7,-103 -5,-14 -16,-21 -34,-21 -16,0 -26,6 -31,18 -5,12 -8,42 -8,91l0 459c0,43 3,71 8,85 6,14 17,20 33,20 18,0 30,-8 37,-23 6,-16 10,-45 10,-90l0 -113 -50 0 0 -145 291 0 0 513 -156 0 -23 -69c-17,30 -38,52 -64,67 -26,15 -56,22 -91,22 -42,0 -81,-10 -117,-30 -36,-20 -64,-45 -83,-75 -19,-30 -31,-61 -35,-94 -5,-33 -7,-82 -7,-148l0 -284c0,-91 5,-158 15,-199 10,-42 38,-79 85,-114 47,-34 107,-52 181,-52 73,0 133,15 181,45 48,30 79,65 94,107 15,41 22,101 22,179l0 41z"/>
  <path id="123456" class="fil2" d="M5566 2308l-224 0 0 -53c0,-60 7,-107 21,-140 14,-33 42,-62 84,-87 42,-25 97,-38 164,-38 81,0 141,14 182,43 41,29 66,64 74,105 8,42 12,127 12,257l0 393 -232 0 0 -70c-15,28 -33,49 -56,63 -23,14 -50,21 -82,21 -42,0 -80,-12 -115,-35 -35,-23 -52,-75 -52,-154l0 -64c0,-59 9,-99 28,-120 19,-21 64,-46 138,-74 78,-31 120,-51 126,-62 5,-11 8,-32 8,-65 0,-41 -3,-68 -9,-80 -6,-12 -16,-19 -30,-19 -16,0 -26,5 -30,16 -4,10 -6,37 -6,81l0 82zm76 107c-38,28 -60,51 -67,70 -6,19 -9,46 -9,81 0,41 3,67 8,79 5,12 16,18 32,18 15,0 25,-5 29,-14 4,-9 7,-34 7,-73l0 -161z"/>
  <polygon id="1234567" class="fil2" points="6334,2004 6334,2178 6158,2631 6334,2631 6334,2788 5927,2788 5927,2624 6107,2162 5945,2162 5945,2004 "/>
  <path class="fil3" d="M1794 1738l0 -594c0,-172 140,-312 312,-312l2037 0 0 268 -2037 0c-24,0 -44,20 -44,44l0 594 -268 0z"/>
  <g id="_252294392">
   <g>
    <path class="fil4 str0" d="M3071 79c456,0 825,369 825,825 0,456 -369,825 -825,825 -456,0 -825,-369 -825,-825 0,-456 369,-825 825,-825z"/>
    <path id="1" class="fil3" d="M3071 79c456,0 825,369 825,825 0,456 -369,825 -825,825 -456,0 -825,-369 -825,-825 0,-456 369,-825 825,-825z"/>
   </g>
   <g id="_252294440">
    <polygon class="fil5" points="2719,1063 2657,1063 2657,827 2617,849 2588,800 2673,745 2719,745 "/>
    <path class="fil5" d="M2923 904c0,-25 -3,-46 -9,-63 -9,-25 -23,-38 -43,-38 -20,0 -35,12 -44,37 -6,17 -9,38 -9,63 0,25 3,46 9,63 9,25 23,37 44,37 34,0 52,-33 52,-100zm66 -1c0,43 -9,80 -26,109 -21,36 -52,54 -92,54 -40,0 -71,-18 -92,-54 -17,-29 -26,-66 -26,-109 0,-43 9,-80 26,-109 21,-36 52,-54 92,-54 40,0 71,18 92,54 17,30 26,66 26,109z"/>
    <path class="fil5" d="M3170 904c0,-25 -3,-46 -9,-63 -9,-25 -23,-38 -43,-38 -20,0 -35,12 -44,37 -6,17 -9,38 -9,63 0,25 3,46 9,63 9,25 23,37 44,37 34,0 52,-33 52,-100zm66 -1c0,43 -9,80 -26,109 -21,36 -52,54 -92,54 -40,0 -71,-18 -92,-54 -17,-29 -26,-66 -26,-109 0,-43 9,-80 26,-109 21,-36 52,-54 92,-54 40,0 71,18 92,54 17,30 26,66 26,109z"/>
    <path class="fil5" d="M3516 995c0,-22 -6,-34 -18,-34 -12,0 -18,11 -18,34 0,22 6,33 18,33 12,0 18,-11 18,-33zm39 0c0,20 -4,36 -13,49 -10,15 -25,23 -44,23 -19,0 -34,-8 -44,-23 -8,-13 -13,-29 -13,-49 0,-20 4,-36 13,-49 10,-15 25,-23 44,-23 19,0 34,8 44,23 9,13 13,29 13,49zm-51 -182l-114 250 -48 0 114 -250 47 0zm-138 68c0,-22 -6,-34 -18,-34 -12,0 -18,11 -18,34 0,22 6,34 18,34 12,0 18,-11 18,-34zm39 0c0,20 -4,36 -13,49 -10,15 -25,23 -44,23 -19,0 -34,-8 -44,-23 -9,-13 -13,-29 -13,-49 0,-20 4,-36 13,-49 10,-15 25,-23 44,-23 19,0 34,8 44,23 8,13 13,29 13,49z"/>
    <path class="fil6" d="M3741 1291c-23,41 -50,79 -80,114 -1,1 -2,3 -3,4 -1,1 -1,2 -2,2 -12,14 -24,27 -37,40 -26,26 -53,49 -81,71l-120 -165c3,-2 6,-4 8,-6 1,-1 2,-1 3,-2 2,-2 4,-3 6,-5 34,-28 65,-60 92,-96 6,-8 12,-17 18,-25 0,0 0,-1 1,-1 2,-3 4,-7 7,-10 1,-1 1,-2 2,-3 2,-3 3,-5 5,-8 1,-2 2,-3 3,-5 1,-2 3,-4 4,-6 1,-2 3,-4 4,-7 1,-2 2,-3 3,-5 2,-3 3,-6 4,-8 1,-1 1,-2 2,-3 2,-4 4,-7 5,-11 0,0 0,-1 1,-1 5,-9 9,-19 13,-28 5,-11 9,-22 13,-32l193 63c-6,17 -13,35 -20,51 -12,28 -26,56 -42,83z"/>
    <path class="fil7" d="M3367 1619c-3,1 -6,3 -10,4 -1,1 -3,1 -4,2 -2,1 -4,2 -6,2 -3,1 -5,2 -8,3 -1,0 -1,1 -2,1 -65,24 -133,39 -202,45 -17,1 -34,2 -51,3l0 -203c21,-1 42,-2 63,-5 50,-7 98,-20 145,-40 23,-10 45,-21 66,-33 1,-1 2,-1 3,-2 2,-1 4,-2 6,-4 3,-2 6,-4 9,-6 1,-1 2,-1 3,-2 3,-2 5,-4 8,-5 1,0 1,-1 2,-1 2,-1 3,-2 5,-3l120 165c-18,13 -37,25 -57,36 -29,17 -60,32 -91,45 0,0 0,0 0,0z"/>
    <path class="fil8" d="M3012 1675c-2,0 -3,0 -5,0 -74,-6 -146,-23 -215,-49 -1,0 -1,0 -2,-1 -3,-1 -5,-2 -8,-3 -2,-1 -4,-1 -5,-2 -1,-1 -3,-1 -4,-2 -3,-1 -6,-2 -9,-4 0,0 -1,0 -1,0 -27,-12 -53,-25 -79,-40 -19,-11 -38,-23 -57,-36l120 -165c1,1 3,2 4,3 1,1 2,2 4,2 2,1 4,3 6,4 7,5 14,9 21,13 0,0 0,0 0,0 22,13 44,24 67,34 47,20 95,33 145,40 2,0 3,0 5,1 0,0 0,0 1,0 19,2 38,4 57,4l0 203c-15,0 -29,-1 -44,-2 -1,0 -1,0 -2,0z"/>
    <path class="fil9" d="M2524 1451c-13,-13 -25,-26 -36,-39 -1,-1 -2,-2 -3,-4 -1,-1 -2,-2 -2,-3 -30,-36 -57,-74 -81,-115 -16,-27 -30,-55 -42,-83 -7,-17 -14,-34 -20,-51l193 -63c4,11 8,22 13,32 4,10 8,19 13,28 0,0 0,1 1,1 2,4 4,7 5,11 1,1 1,2 2,3 1,3 3,6 4,8 1,2 2,3 3,5 1,2 2,4 4,7 1,2 3,4 4,6 1,2 2,3 3,5 2,3 3,5 5,8 1,1 1,2 2,3 2,3 4,7 7,10 0,0 0,1 1,1 6,9 12,17 18,25 27,36 58,68 93,97 1,1 2,2 4,3 1,1 3,2 4,3 3,2 5,4 8,6l-120 165c-28,-22 -56,-45 -81,-71z"/>
    <path class="fil10" d="M2401 517c23,-41 50,-79 81,-114 1,-1 2,-2 3,-3 1,-1 2,-2 3,-3 12,-14 24,-27 37,-40 26,-26 53,-49 81,-71l120 165c-3,2 -5,4 -8,6 -1,1 -2,2 -3,2 -2,1 -4,3 -5,4 -34,28 -65,60 -92,96 -6,8 -12,17 -18,25 0,0 0,1 -1,1 -2,3 -4,7 -7,10 -1,1 -1,2 -2,3 -2,3 -3,5 -5,8 -1,2 -2,3 -3,5 -1,2 -3,4 -4,7 -1,2 -2,4 -4,7 -1,2 -2,3 -3,5 -2,3 -3,6 -4,8 -1,1 -1,2 -2,3 -2,4 -4,7 -5,11 0,0 0,1 -1,1 -5,9 -9,19 -13,28 -5,11 -9,22 -13,33l-193 -63c6,-17 13,-34 20,-51 12,-28 26,-56 42,-83z"/>
    <path class="fil11" d="M2776 189c3,-1 5,-2 8,-3 2,-1 4,-1 6,-2 1,-1 3,-1 4,-2 3,-1 6,-2 9,-4 0,0 0,0 0,0 65,-24 134,-39 204,-45 2,0 3,0 5,0 0,0 1,0 1,0 15,-1 29,-2 44,-2l0 203c-19,0 -38,2 -57,4 0,0 0,0 0,0 -2,0 -4,0 -5,1 -50,7 -98,20 -145,40 -23,10 -45,21 -66,33 -1,0 -1,1 -2,1 -2,1 -5,3 -7,4 -3,2 -6,4 -9,5 -1,1 -2,2 -4,2 -3,2 -5,3 -8,5 -1,0 -1,1 -2,1 -2,1 -3,2 -5,3l-120 -165c18,-13 37,-25 57,-36 29,-17 59,-32 90,-44 1,0 1,-1 2,-1z"/>
    <path class="fil12" d="M3130 132c2,0 3,0 5,0 73,6 146,23 214,49 1,0 1,1 2,1 3,1 5,2 7,3 2,1 4,2 6,2 1,1 3,1 4,2 3,1 6,3 9,4 0,0 0,0 0,0 27,12 53,25 79,40 19,11 38,23 57,36l-120 165c-1,-1 -3,-2 -4,-3 -1,-1 -2,-1 -3,-2 -2,-1 -4,-3 -6,-4 -2,-1 -3,-2 -5,-3 -1,0 -1,-1 -2,-1 -5,-3 -9,-6 -14,-8 0,0 0,0 -1,0 -21,-13 -44,-24 -67,-34 -47,-20 -95,-33 -145,-40 -2,0 -4,0 -5,-1 0,0 0,0 0,0 -19,-2 -38,-4 -57,-4l0 -203c15,0 29,1 44,2 0,0 1,0 1,0z"/>
    <path class="fil13" d="M3618 357c13,13 25,26 37,39 1,1 2,2 3,4 1,1 2,2 3,3 30,35 57,74 81,114 16,27 30,55 42,83 7,17 14,34 20,51l-193 63c-4,-11 -8,-22 -13,-33 -4,-10 -8,-19 -13,-28 0,0 0,-1 -1,-1 -2,-4 -4,-7 -5,-11 -1,-1 -1,-2 -2,-3 -1,-3 -3,-6 -4,-8 -1,-2 -2,-3 -3,-5 -1,-2 -2,-4 -4,-7 -1,-2 -3,-4 -4,-6 -1,-2 -2,-3 -3,-5 -2,-3 -3,-5 -5,-8 -1,-1 -1,-2 -2,-3 -2,-3 -4,-7 -7,-10 0,0 0,-1 -1,-1 -6,-9 -12,-17 -18,-25 -27,-36 -58,-68 -93,-97 -1,-1 -3,-2 -4,-3 -1,-1 -2,-2 -4,-3 -3,-2 -5,-4 -8,-6l120 -165c28,22 56,45 81,71z"/>
    <path class="fil14" d="M3845 904c0,31 -2,62 -5,93 -4,36 -11,72 -21,107 -2,9 -5,17 -7,26l-193 -63c1,-3 2,-6 3,-9 0,0 0,-1 0,-1 1,-2 1,-4 2,-6 0,-2 1,-4 1,-6 0,0 0,-1 0,-1 6,-23 10,-47 13,-71 2,-19 4,-39 4,-58 0,0 0,-1 0,-1 0,-2 0,-3 0,-5 0,-1 0,-2 0,-2 0,-1 0,-3 0,-4 0,-1 0,-3 0,-4 0,-1 0,-2 0,-2 0,-2 0,-3 0,-5 0,0 0,-1 0,-1 0,-19 -2,-39 -4,-58 -3,-24 -7,-47 -13,-71 0,0 0,-1 0,-1 -1,-2 -1,-4 -1,-6 -1,-2 -1,-4 -2,-5 0,0 0,-1 0,-1 -1,-3 -2,-6 -3,-9l193 -63c3,8 5,17 7,26 10,36 16,71 21,107 4,31 5,62 5,93z"/>
    <path class="fil15" d="M2522 750c0,0 0,1 0,1 -1,2 -1,4 -1,5 -1,2 -1,4 -2,6 0,0 0,1 0,1 -6,23 -10,47 -13,71 -2,19 -4,39 -4,58 0,0 0,1 0,1 0,2 0,3 0,5 0,1 0,2 0,2 0,1 0,3 0,4 0,1 0,3 0,4 0,1 0,2 0,2 0,2 0,3 0,5 0,0 0,1 0,1 0,19 2,39 4,58 3,24 7,47 13,71 0,0 0,1 0,1 0,2 1,4 1,6 0,2 1,4 2,6 0,0 0,1 0,1 1,3 2,6 3,9l-193 63c-3,-8 -5,-17 -7,-26 -10,-36 -16,-71 -21,-107 -4,-31 -5,-62 -5,-93 0,-31 2,-62 5,-93 4,-36 11,-72 21,-107 2,-9 5,-17 7,-26l193 63c-1,3 -2,6 -3,9z"/>
   </g>
  </g>
 </g>
</svg>
